<svg enable-background="new 56.563 45.039 353.787 229.379" height="229.379" viewBox="56.563 45.039 353.787 229.379" width="353.787" xmlns="http://www.w3.org/2000/svg"><g fill="#7a0000"><path d="m405.444 101.498c-8.715-22.132-25.14-39.563-52.248-50.264-7.166-2.884-17.885-5.715-24.589-6.196 30.411 9.971 53.389 27.954 63.109 52.631 22.399 56.859-34.024 127.715-126.022 158.205-46.257 15.339-92.692 17.574-130.278 8.777 3.943 2.796 13.442 4.986 20.601 6.357 36.304 7.041 79.908 3.124 123.414-11.298 91.997-30.497 148.411-101.335 126.013-158.212z"/><path d="m302.684 206.493c-1.06.383-1.869 1.71-1.807 2.956.07 1.255.979 1.958 2.038 1.575 1.068-.383 1.879-1.7 1.808-2.964-.063-1.247-.98-1.95-2.039-1.567z"/><path d="m281.508 218.289-.178-4.104c-.294.391-1.096 1.166-2.226 1.699l-3.847 1.354-.257-4.949c1.086-.393 1.522-.525 2.288-.739.935-.267 1.478.044 1.825.178l-.24-4.549c-.259.437-1.202 1.068-1.692 1.265-.756.284-1.246.471-2.341.854-.054-.489-.249-4.379-.249-4.878l3.312-1.095c.899-.25 1.896-.356 2.475-.08l-.195-3.863-10.416 3.596c.383.437.686 1.398.766 2.422.364 4.273.703 13.229.703 13.229.089 1.799-.231 2.911-.49 3.543z"/><path d="m286.847 214.193c-1.095.391-3.099.169-3.757-.455l.187 3.525c.472.072 2.707-.23 3.748-.587 2.894-.988 4.888-2.956 4.736-5.902-.08-1.434-.722-2.333-2.243-2.742-1.933-.517-2.885-.801-3.027-1.415-.151-.721.348-1.326 1.256-1.656.836-.303 2.207-.151 2.821.151l-.169-3.009c-.641-.009-1.932-.009-2.857.223-2.769.703-5.03 2.635-4.888 5.484.098 1.869 1.265 2.625 3.151 3.018 1.728.355 2.271.898 2.314 1.798.037.562-.463 1.273-1.272 1.567z"/><path d="m294.114 197.988-2.314 5.6 1.656-.516.355 6.757c.071 1.371.303 2.421.819 2.92.659.632 1.486.766 2.502.409.774-.275 1.7-.836 2.421-1.389l-.098-1.977c-1.033.268-1.923-.106-2.003-1.531l-.339-6.498 2.368-.819-.106-2.982s-.623.534-1.594.935l-.801.294c-.089-1.673-.054-1.522-.054-2.358z"/><path d="m313.084 207.113s-1.121-.57-1.229-2.556l-.792-15.249s-4.905 4.326-5.101 4.389c.427.285 1.611.686 1.718 2.68l.48 9.436c.099 1.736-.703 3.313-.703 3.313z"/><path d="m327.2 197.406c.16 2.946 2.875 4.006 5.982 2.884 4.015-1.434 5.697-5.226 5.573-7.576-.09-1.62-.811-2.563-2.057-3.303-.41-.24-1.166-.454-1.166-.454 1.05-1.121 2.323-2.742 2.234-4.389-.143-2.813-2.413-3.614-5.208-2.617-3.588 1.281-5.244 4.354-5.119 6.686.063 1.193.499 1.923 1.345 2.635.534.454 1.104.659 1.104.659-1.192.997-2.794 3.4-2.688 5.475zm5.431-13.398c.828-.294 1.674.115 1.744 1.309h.001c.035.738-.276 1.771-1.211 3.026-.979-.276-2.039-.943-2.093-1.985-.052-1.051.562-1.995 1.559-2.35zm-.303 8.822c1.691.613 2.555 1.139 2.635 2.457.054 1.166-.801 2.341-1.958 2.76-1.122.4-2.217-.071-2.297-1.479-.045-.952.436-2.332 1.62-3.738z"/><path d="m313.963 202.154c.143 2.947 2.876 3.997 5.982 2.885 4.016-1.434 5.688-5.227 5.564-7.586-.08-1.611-.811-2.555-2.057-3.311-.4-.232-1.157-.438-1.157-.438 1.041-1.13 2.314-2.75 2.234-4.396-.151-2.814-2.422-3.624-5.217-2.618-3.588 1.291-5.243 4.354-5.119 6.677.063 1.211.508 1.924 1.345 2.645.543.463 1.104.649 1.104.649-1.192 1.007-2.794 3.419-2.679 5.493zm5.422-13.407c.828-.294 1.674.116 1.736 1.3.044.757-.259 1.771-1.202 3.035-.971-.275-2.039-.943-2.092-1.994-.053-1.059.57-1.984 1.558-2.341zm-.303 8.822c1.691.614 2.563 1.14 2.626 2.457.063 1.166-.783 2.341-1.949 2.76-1.122.401-2.217-.071-2.288-1.478-.054-.953.436-2.331 1.611-3.739z"/><path d="m344.66 193.307c-1.478.534-2.911.188-3.89-.623l.187 3.588c1.104.16 2.564.32 4.362-.33 3.445-1.236 6.339-4.771 6.151-8.572-.134-2.502-1.754-4.745-5.109-3.534-1.096.392-2.084 1.086-2.689 1.691l-.07-3.552 6.204-2.227-.089-3.943c-.392.348-1.13.757-2.092 1.086l-6.899 2.484.231 9.312 1.683.48c.267-.463.943-1.603 2.11-2.012 1.309-.472 2.367.106 2.466 1.95.107 1.941-.944 3.632-2.556 4.202z"/><path d="m129.305 226.598-2.297-43.881c7.959-.961 20.351-6.23 27.784-11.341 21.179-14.556 26.858-30.803 25.39-48.225-1.745-20.645-16.968-38.031-40.924-36.714-7.265.392-15.269 2.404-24.082 6.143-29.832 12.633-57.545 44.156-58.587 83.977-.605 23.396 9.517 47.619 25.239 59.904 4.727 3.695 8.563 5.253 9.917 5.6-21.802-18.134-24.775-46.381-23.066-62.299 4.193-39.1 32.726-62.851 52.017-68.852 17.983-5.591 34.302.187 35.352 20.111 1.024 19.523-10.202 32.031-21.063 37.124-3.054 1.415-6.205 2.359-8.511 2.697l-2.849-54.207c-8.725 3.125-21.144 12.268-24.464 16.594l5.101 97.33c.428 8.084-.338 15.242-4.184 23.432 2.661-.961 28.701-10.166 34.933-12.517-4.576-4.167-5.457-10.176-5.706-14.876z"/><path d="m290.738 154.34c.32 16.816 11.644 28.337 27.544 23.805 10.566-3 20.653-13.62 24.384-21.677.267 5.173-1.282 9.409-2.68 12.161 1.807-.659 18.356-6.678 20.938-7.594-2.493-3.107-3.081-7.808-3.321-12.428-.089-1.549-.498-8.689-.872-16.63.026-8.199 2.68-12.837 5.102-14.413 2.688-1.745 6.605-1.113 7.495 2.377.543 2.137-.16 5.039-2.555 6.739 7.825 2.119 15.953-3.418 15.179-13.576-.703-9.178-8.617-12.882-15.045-10.915-4.924 1.504-9.393 5.991-10.977 12.259-.205-4.434-.356-7.451-.356-7.451l-19.024 6.961c1.771 1.389 3.365 4.14 3.605 8.6l1.06 20.298c-2.493 9.784-11.556 20.716-19.229 22.452-7.362 1.665-12.295-1.345-14.653-6.988 5.109.562 9.169.044 13.237-1.575 7.959-3.161 14.778-12.295 13.719-23.325-1.041-10.826-10.354-15.98-21.054-12.57-15.18 4.851-22.765 18.65-22.497 33.49zm22.014-23.859c5.084-1.006 6.588 3.891 6.624 7.131.035 4.496-1.763 9.33-6.659 11.974-2.306 1.256-4.879 1.479-7.06 1.389-1.477-12.9 3.143-19.71 7.095-20.494z"/><path d="m236.794 174.776c-.881-16.977-11.706-21.286-19.327-18.704-4.807 1.629-9.294 3.846-12.392 9.579l-.25-4.655-19.487 7.112c1.771 1.397 3.339 4.157 3.57 8.618.08 1.646.578 11.52 1.121 22.461-2.679 9.418-12.098 18.668-19.522 20.342-7.371 1.674-12.304-1.318-14.653-6.962 5.109.552 9.169.018 13.237-1.585 7.968-3.169 14.787-12.32 13.719-23.333-1.041-10.816-10.354-15.979-21.054-12.562-15.17 4.834-22.772 18.643-22.488 33.482.312 16.816 11.636 28.318 27.545 23.787 10.425-2.955 20.813-11.805 23.921-18.998.979 19.666 1.121 22.328 1.14 22.657.169 3.116-.348 11.181-2.315 15.116l22.266-8.137c-2.413-3.677-3.125-8.19-3.356-12.419l-.757-14.538c4.639-.908 9.917-2.59 13.674-5.074 10.833-7.147 16.165-21.899 15.408-36.187zm-82.605 30.42c-1.495-12.899 3.143-19.71 7.096-20.493 5.074-.988 6.587 3.891 6.605 7.131.053 4.495-1.745 9.348-6.642 11.991-2.305 1.238-4.887 1.469-7.059 1.371zm60.029-2.938c-1.763 1.834-4.611 3.295-7.024 3.944l-1.611-30.758c2.173-2.19 4.042-3.952 6.713-4.397 5.065-.838 7.95 3.472 8.271 9.686.425 8.011-1.48 16.46-6.349 21.525z"/><path d="m288.107 156.906c-1.06-17.92-11.138-21.953-19.354-19.238-5.955 1.958-8.982 6.044-11.982 10.648l-.312-5.921-19.496 7.131c1.78 1.389 3.267 4.148 3.508 8.608l3.124 59.531c.276 5.377-.667 11.555-2.261 14.92 0 0 19.541-7.104 22.122-8.021-2.421-3.667-3.125-8.172-3.347-12.428l-.775-14.697c4.639-.917 9.57-2.572 13.327-5.048 10.781-7.139 16.318-20.778 15.446-35.485zm-22.426 26.94c-1.798 1.789-4.495 3.026-6.854 3.721l-1.611-30.713c1.949-1.994 4.354-3.936 7.006-4.381 5.074-.828 7.505 4.148 7.834 10.372.418 8.03-1.158 15.801-6.375 21.001z"/><path d="m259.699 88.751 1.594 30.277c.223 4.389.463 9.819-1.78 15.802 1.807-.667 18.356-6.686 20.938-7.603-2.484-3.107-3.116-7.808-3.356-12.428-.08-1.549-.418-8.689-.801-16.63-.473-8.894 2.448-12.419 5.065-14.404 2.555-1.94 6.614-1.122 7.505 2.359.533 2.146-.161 5.057-2.564 6.748 7.825 2.119 15.953-3.418 15.188-13.567-.694-9.187-8.626-12.882-15.045-10.923-4.932 1.514-9.393 5.992-10.985 12.259-.214-4.424-.356-7.442-.356-7.442l-19.024 6.944c1.77 1.398 3.39 4.139 3.621 8.608z"/><path d="m184.397 89.48c.303 5.101 2.68 51.322 2.804 53.388.268 4.54 1.087 10.95-2.991 18.704 3.713-1.291 29.503-10.345 36.207-13.06 18.713-7.603 33.366-25.862 32.004-53.513-1.406-28.969-21.232-37.854-43.123-30.616-5.858 1.941-26.468 9.615-31.07 11.146 3.382 2.227 5.715 6.082 6.169 13.951zm33.846-13.193c9.365 2.181 12.802 13.487 13.212 24.535.463 12.561-3.677 27.731-13.461 34.915-2.929 2.155-7.068 4.06-10.051 4.977-.125-2.261-2.991-56.166-3.24-60.981 3.481-2.164 8.814-4.55 13.54-3.446z"/></g></svg>